<svg xmlns="http://www.w3.org/2000/svg" xmlns:xlink="http://www.w3.org/1999/xlink" contentStyleType="text/css" height="1852px" preserveAspectRatio="none" style="width:502px;height:1852px;background:#FFFFFF;" version="1.1" viewBox="0 0 502 1852" width="502px" zoomAndPan="magnify"><defs/><g><ellipse cx="238.6289" cy="20" fill="#222222" rx="10" ry="10" style="stroke:#222222;stroke-width:1.0;"/><rect fill="#F1F1F1" height="33.9688" rx="12.5" ry="12.5" style="stroke:#181818;stroke-width:0.5;" width="166.2324" x="155.5127" y="50"/><text fill="#000000" font-family="sans-serif" font-size="12" lengthAdjust="spacing" textLength="146.2324" x="165.5127" y="71.1387">Sensor begin band hoog</text><rect fill="#F1F1F1" height="33.9688" rx="12.5" ry="12.5" style="stroke:#181818;stroke-width:0.5;" width="159.5586" x="158.8496" y="103.9688"/><text fill="#000000" font-family="sans-serif" font-size="12" lengthAdjust="spacing" textLength="139.5586" x="168.8496" y="125.1074">Band lopen (elektrisch)</text><rect fill="#F1F1F1" height="33.9688" rx="12.5" ry="12.5" style="stroke:#181818;stroke-width:0.5;" width="107.4688" x="184.8945" y="206.3398"/><text fill="#000000" font-family="sans-serif" font-size="12" lengthAdjust="spacing" textLength="87.4688" x="194.8945" y="227.4785">Stopper uit (p)</text><rect fill="#F1F1F1" height="33.9688" rx="12.5" ry="12.5" style="stroke:#181818;stroke-width:0.5;" width="119.6738" x="178.792" y="260.3086"/><text fill="#000000" font-family="sans-serif" font-size="12" lengthAdjust="spacing" textLength="99.6738" x="188.792" y="281.4473">Gripper open (p)</text><rect fill="#F1F1F1" height="33.9688" rx="12.5" ry="12.5" style="stroke:#181818;stroke-width:0.5;" width="114.9395" x="181.1592" y="314.2773"/><text fill="#000000" font-family="sans-serif" font-size="12" lengthAdjust="spacing" textLength="94.9395" x="191.1592" y="335.416">Z as omlaag (p)</text><rect fill="#F1F1F1" height="33.9688" rx="12.5" ry="12.5" style="stroke:#181818;stroke-width:0.5;" width="119.5859" x="178.8359" y="368.2461"/><text fill="#000000" font-family="sans-serif" font-size="12" lengthAdjust="spacing" textLength="99.5859" x="188.8359" y="389.3848">Gripper dicht (p)</text><rect fill="#F1F1F1" height="33.9688" rx="12.5" ry="12.5" style="stroke:#181818;stroke-width:0.5;" width="119.1875" x="179.0352" y="422.2148"/><text fill="#000000" font-family="sans-serif" font-size="12" lengthAdjust="spacing" textLength="99.1875" x="189.0352" y="443.3535">Z as omhoog (p)</text><rect fill="#F1F1F1" height="33.9688" rx="12.5" ry="12.5" style="stroke:#181818;stroke-width:0.5;" width="139.9063" x="168.6758" y="476.1836"/><text fill="#000000" font-family="sans-serif" font-size="12" lengthAdjust="spacing" textLength="119.9063" x="178.6758" y="497.3223">X as verplaatsen (s)</text><rect fill="#555555" height="6" rx="2.5" ry="2.5" style="stroke:#555555;stroke-width:1.0;" width="455.2578" x="11" y="530.1523"/><rect fill="#F1F1F1" height="33.9688" rx="12.5" ry="12.5" style="stroke:#181818;stroke-width:0.5;" width="195.2305" x="23" y="929.4492"/><text fill="#000000" font-family="sans-serif" font-size="12" lengthAdjust="spacing" textLength="175.2305" x="33" y="950.5879">Magazijn aandruk cilinder (p)</text><rect fill="#F1F1F1" height="33.9688" rx="12.5" ry="12.5" style="stroke:#181818;stroke-width:0.5;" width="112.4844" x="64.373" y="998.418"/><text fill="#000000" font-family="sans-serif" font-size="12" lengthAdjust="spacing" textLength="92.4844" x="74.373" y="1019.5566">Doos invoer (p)</text><rect fill="#F1F1F1" height="33.9688" rx="12.5" ry="12.5" style="stroke:#181818;stroke-width:0.5;" width="153.7051" x="43.7627" y="1067.3867"/><text fill="#000000" font-family="sans-serif" font-size="12" lengthAdjust="spacing" textLength="133.7051" x="53.7627" y="1088.5254">Doos open houden (p)</text><rect fill="#F1F1F1" height="33.9688" rx="12.5" ry="12.5" style="stroke:#181818;stroke-width:0.5;" width="167.6973" x="266.3955" y="556.1523"/><text fill="#000000" font-family="sans-serif" font-size="12" lengthAdjust="spacing" textLength="147.6973" x="276.3955" y="577.291">Half positie stop Z as (p)</text><rect fill="#F1F1F1" height="33.9688" rx="12.5" ry="12.5" style="stroke:#181818;stroke-width:0.5;" width="114.9395" x="292.7744" y="610.1211"/><text fill="#000000" font-family="sans-serif" font-size="12" lengthAdjust="spacing" textLength="94.9395" x="302.7744" y="631.2598">Z as omlaag (p)</text><rect fill="#F1F1F1" height="33.9688" rx="12.5" ry="12.5" style="stroke:#181818;stroke-width:0.5;" width="119.6738" x="290.4072" y="664.0898"/><text fill="#000000" font-family="sans-serif" font-size="12" lengthAdjust="spacing" textLength="99.6738" x="300.4072" y="685.2285">Gripper open (p)</text><rect fill="#F1F1F1" height="33.9688" rx="12.5" ry="12.5" style="stroke:#181818;stroke-width:0.5;" width="119.1875" x="290.6504" y="718.0586"/><text fill="#000000" font-family="sans-serif" font-size="12" lengthAdjust="spacing" textLength="99.1875" x="300.6504" y="739.1973">Z as omhoog (p)</text><rect fill="#F1F1F1" height="33.9688" rx="12.5" ry="12.5" style="stroke:#181818;stroke-width:0.5;" width="187.0918" x="256.6982" y="772.0273"/><text fill="#000000" font-family="sans-serif" font-size="12" lengthAdjust="spacing" textLength="167.0918" x="266.6982" y="793.166">Doos open houder terug (p)</text><rect fill="#F1F1F1" height="33.9688" rx="12.5" ry="12.5" style="stroke:#181818;stroke-width:0.5;" width="191.6152" x="254.4365" y="840.9961"/><text fill="#000000" font-family="sans-serif" font-size="12" lengthAdjust="spacing" textLength="171.6152" x="264.4365" y="862.1348">Boven lipje dicht vouwen (p)</text><rect fill="#F1F1F1" height="33.9688" rx="12.5" ry="12.5" style="stroke:#181818;stroke-width:0.5;" width="115.3613" x="292.5635" y="894.9648"/><text fill="#000000" font-family="sans-serif" font-size="12" lengthAdjust="spacing" textLength="95.3613" x="302.5635" y="916.1035">Doosje dicht (p)</text><rect fill="#F1F1F1" height="33.9688" rx="12.5" ry="12.5" style="stroke:#181818;stroke-width:0.5;" width="208.0273" x="246.2305" y="963.9336"/><text fill="#000000" font-family="sans-serif" font-size="12" lengthAdjust="spacing" textLength="188.0273" x="256.2305" y="985.0723">Doosje terug naar conveyor (p)</text><rect fill="#F1F1F1" height="33.9688" rx="12.5" ry="12.5" style="stroke:#181818;stroke-width:0.5;" width="114.9395" x="292.7744" y="1032.9023"/><text fill="#000000" font-family="sans-serif" font-size="12" lengthAdjust="spacing" textLength="94.9395" x="302.7744" y="1054.041">Z as omlaag (p)</text><rect fill="#F1F1F1" height="33.9688" rx="12.5" ry="12.5" style="stroke:#181818;stroke-width:0.5;" width="119.5859" x="290.4512" y="1101.8711"/><text fill="#000000" font-family="sans-serif" font-size="12" lengthAdjust="spacing" textLength="99.5859" x="300.4512" y="1123.0098">Gripper dicht (p)</text><rect fill="#F1F1F1" height="33.9688" rx="12.5" ry="12.5" style="stroke:#181818;stroke-width:0.5;" width="119.1875" x="290.6504" y="1155.8398"/><text fill="#000000" font-family="sans-serif" font-size="12" lengthAdjust="spacing" textLength="99.1875" x="300.6504" y="1176.9785">Z as omhoog (p)</text><rect fill="#F1F1F1" height="33.9688" rx="12.5" ry="12.5" style="stroke:#181818;stroke-width:0.5;" width="174.3008" x="263.0938" y="1209.8086"/><text fill="#000000" font-family="sans-serif" font-size="12" lengthAdjust="spacing" textLength="154.3008" x="273.0938" y="1230.9473">Half positie stop terug (p)</text><rect fill="#F1F1F1" height="33.9688" rx="12.5" ry="12.5" style="stroke:#181818;stroke-width:0.5;" width="166.8125" x="266.8379" y="1263.7773"/><text fill="#000000" font-family="sans-serif" font-size="12" lengthAdjust="spacing" textLength="146.8125" x="276.8379" y="1284.916">X as terug naar basis (s)</text><rect fill="#F1F1F1" height="33.9688" rx="12.5" ry="12.5" style="stroke:#181818;stroke-width:0.5;" width="114.9395" x="292.7744" y="1317.7461"/><text fill="#000000" font-family="sans-serif" font-size="12" lengthAdjust="spacing" textLength="94.9395" x="302.7744" y="1338.8848">Z as omlaag (p)</text><rect fill="#F1F1F1" height="33.9688" rx="12.5" ry="12.5" style="stroke:#181818;stroke-width:0.5;" width="119.6738" x="290.4072" y="1371.7148"/><text fill="#000000" font-family="sans-serif" font-size="12" lengthAdjust="spacing" textLength="99.6738" x="300.4072" y="1392.8535">Gripper open (p)</text><rect fill="#F1F1F1" height="33.9688" rx="12.5" ry="12.5" style="stroke:#181818;stroke-width:0.5;" width="119.1875" x="290.6504" y="1425.6836"/><text fill="#000000" font-family="sans-serif" font-size="12" lengthAdjust="spacing" textLength="99.1875" x="300.6504" y="1446.8223">Z as omhoog (p)</text><rect fill="#555555" height="6" rx="2.5" ry="2.5" style="stroke:#555555;stroke-width:1.0;" width="455.2578" x="11" y="1479.6523"/><polygon fill="#F1F1F1" points="153.9509,157.9375,323.3069,157.9375,335.3069,169.9375,323.3069,181.9375,153.9509,181.9375,141.9509,169.9375,153.9509,157.9375" style="stroke:#181818;stroke-width:0.5;"/><text fill="#000000" font-family="sans-serif" font-size="11" lengthAdjust="spacing" textLength="9.9849" x="242.6289" y="192.1479">Ja</text><text fill="#000000" font-family="sans-serif" font-size="11" lengthAdjust="spacing" textLength="169.356" x="153.9509" y="173.7456">Moet product worden verpakt?</text><text fill="#000000" font-family="sans-serif" font-size="11" lengthAdjust="spacing" textLength="21.7637" x="335.3069" y="167.3433">Nee</text><polygon fill="#F1F1F1" points="238.6289,1505.6523,250.6289,1517.6523,238.6289,1529.6523,226.6289,1517.6523,238.6289,1505.6523" style="stroke:#181818;stroke-width:0.5;"/><rect fill="#F1F1F1" height="33.9688" rx="12.5" ry="12.5" style="stroke:#181818;stroke-width:0.5;" width="102.7637" x="187.2471" y="1549.6523"/><text fill="#000000" font-family="sans-serif" font-size="12" lengthAdjust="spacing" textLength="82.7637" x="197.2471" y="1570.791">Stopper in (p)</text><rect fill="#F1F1F1" height="33.9688" rx="12.5" ry="12.5" style="stroke:#181818;stroke-width:0.5;" width="173.709" x="151.7744" y="1603.6211"/><text fill="#000000" font-family="sans-serif" font-size="12" lengthAdjust="spacing" textLength="153.709" x="161.7744" y="1624.7598">Band door laten lopen (e)</text><rect fill="#F1F1F1" height="33.9688" rx="12.5" ry="12.5" style="stroke:#181818;stroke-width:0.5;" width="107.4688" x="184.8945" y="1657.5898"/><text fill="#000000" font-family="sans-serif" font-size="12" lengthAdjust="spacing" textLength="87.4688" x="194.8945" y="1678.7285">Stopper uit (p)</text><rect fill="#F1F1F1" height="33.9688" rx="12.5" ry="12.5" style="stroke:#181818;stroke-width:0.5;" width="189.957" x="143.6504" y="1711.5586"/><text fill="#000000" font-family="sans-serif" font-size="12" lengthAdjust="spacing" textLength="169.957" x="153.6504" y="1732.6973">Wacht tot eind-sensor actief</text><rect fill="#F1F1F1" height="33.9688" rx="12.5" ry="12.5" style="stroke:#181818;stroke-width:0.5;" width="105.8047" x="185.7266" y="1765.5273"/><text fill="#000000" font-family="sans-serif" font-size="12" lengthAdjust="spacing" textLength="85.8047" x="195.7266" y="1786.666">Band stopt (e)</text><ellipse cx="238.6289" cy="1830.4961" fill="none" rx="11" ry="11" style="stroke:#222222;stroke-width:1.0;"/><ellipse cx="238.6289" cy="1830.4961" fill="#222222" rx="6" ry="6" style="stroke:#222222;stroke-width:1.0;"/><line style="stroke:#181818;stroke-width:1.0;" x1="238.6289" x2="238.6289" y1="30" y2="50"/><polygon fill="#181818" points="234.6289,40,238.6289,50,242.6289,40,238.6289,44" style="stroke:#181818;stroke-width:1.0;"/><line style="stroke:#181818;stroke-width:1.0;" x1="238.6289" x2="238.6289" y1="83.9688" y2="103.9688"/><polygon fill="#181818" points="234.6289,93.9688,238.6289,103.9688,242.6289,93.9688,238.6289,97.9688" style="stroke:#181818;stroke-width:1.0;"/><line style="stroke:#181818;stroke-width:1.0;" x1="238.6289" x2="238.6289" y1="240.3086" y2="260.3086"/><polygon fill="#181818" points="234.6289,250.3086,238.6289,260.3086,242.6289,250.3086,238.6289,254.3086" style="stroke:#181818;stroke-width:1.0;"/><line style="stroke:#181818;stroke-width:1.0;" x1="238.6289" x2="238.6289" y1="294.2773" y2="314.2773"/><polygon fill="#181818" points="234.6289,304.2773,238.6289,314.2773,242.6289,304.2773,238.6289,308.2773" style="stroke:#181818;stroke-width:1.0;"/><line style="stroke:#181818;stroke-width:1.0;" x1="238.6289" x2="238.6289" y1="348.2461" y2="368.2461"/><polygon fill="#181818" points="234.6289,358.2461,238.6289,368.2461,242.6289,358.2461,238.6289,362.2461" style="stroke:#181818;stroke-width:1.0;"/><line style="stroke:#181818;stroke-width:1.0;" x1="238.6289" x2="238.6289" y1="402.2148" y2="422.2148"/><polygon fill="#181818" points="234.6289,412.2148,238.6289,422.2148,242.6289,412.2148,238.6289,416.2148" style="stroke:#181818;stroke-width:1.0;"/><line style="stroke:#181818;stroke-width:1.0;" x1="238.6289" x2="238.6289" y1="456.1836" y2="476.1836"/><polygon fill="#181818" points="234.6289,466.1836,238.6289,476.1836,242.6289,466.1836,238.6289,470.1836" style="stroke:#181818;stroke-width:1.0;"/><line style="stroke:#181818;stroke-width:1.0;" x1="120.6152" x2="120.6152" y1="963.418" y2="998.418"/><polygon fill="#181818" points="116.6152,988.418,120.6152,998.418,124.6152,988.418,120.6152,992.418" style="stroke:#181818;stroke-width:1.0;"/><line style="stroke:#181818;stroke-width:1.0;" x1="120.6152" x2="120.6152" y1="1032.3867" y2="1067.3867"/><polygon fill="#181818" points="116.6152,1057.3867,120.6152,1067.3867,124.6152,1057.3867,120.6152,1061.3867" style="stroke:#181818;stroke-width:1.0;"/><line style="stroke:#181818;stroke-width:1.0;" x1="350.2441" x2="350.2441" y1="590.1211" y2="610.1211"/><polygon fill="#181818" points="346.2441,600.1211,350.2441,610.1211,354.2441,600.1211,350.2441,604.1211" style="stroke:#181818;stroke-width:1.0;"/><line style="stroke:#181818;stroke-width:1.0;" x1="350.2441" x2="350.2441" y1="644.0898" y2="664.0898"/><polygon fill="#181818" points="346.2441,654.0898,350.2441,664.0898,354.2441,654.0898,350.2441,658.0898" style="stroke:#181818;stroke-width:1.0;"/><line style="stroke:#181818;stroke-width:1.0;" x1="350.2441" x2="350.2441" y1="698.0586" y2="718.0586"/><polygon fill="#181818" points="346.2441,708.0586,350.2441,718.0586,354.2441,708.0586,350.2441,712.0586" style="stroke:#181818;stroke-width:1.0;"/><line style="stroke:#181818;stroke-width:1.0;" x1="350.2441" x2="350.2441" y1="752.0273" y2="772.0273"/><polygon fill="#181818" points="346.2441,762.0273,350.2441,772.0273,354.2441,762.0273,350.2441,766.0273" style="stroke:#181818;stroke-width:1.0;"/><line style="stroke:#181818;stroke-width:1.0;" x1="350.2441" x2="350.2441" y1="805.9961" y2="840.9961"/><polygon fill="#181818" points="346.2441,830.9961,350.2441,840.9961,354.2441,830.9961,350.2441,834.9961" style="stroke:#181818;stroke-width:1.0;"/><line style="stroke:#181818;stroke-width:1.0;" x1="350.2441" x2="350.2441" y1="874.9648" y2="894.9648"/><polygon fill="#181818" points="346.2441,884.9648,350.2441,894.9648,354.2441,884.9648,350.2441,888.9648" style="stroke:#181818;stroke-width:1.0;"/><line style="stroke:#181818;stroke-width:1.0;" x1="350.2441" x2="350.2441" y1="928.9336" y2="963.9336"/><polygon fill="#181818" points="346.2441,953.9336,350.2441,963.9336,354.2441,953.9336,350.2441,957.9336" style="stroke:#181818;stroke-width:1.0;"/><line style="stroke:#181818;stroke-width:1.0;" x1="350.2441" x2="350.2441" y1="997.9023" y2="1032.9023"/><polygon fill="#181818" points="346.2441,1022.9023,350.2441,1032.9023,354.2441,1022.9023,350.2441,1026.9023" style="stroke:#181818;stroke-width:1.0;"/><line style="stroke:#181818;stroke-width:1.0;" x1="350.2441" x2="350.2441" y1="1066.8711" y2="1101.8711"/><polygon fill="#181818" points="346.2441,1091.8711,350.2441,1101.8711,354.2441,1091.8711,350.2441,1095.8711" style="stroke:#181818;stroke-width:1.0;"/><line style="stroke:#181818;stroke-width:1.0;" x1="350.2441" x2="350.2441" y1="1135.8398" y2="1155.8398"/><polygon fill="#181818" points="346.2441,1145.8398,350.2441,1155.8398,354.2441,1145.8398,350.2441,1149.8398" style="stroke:#181818;stroke-width:1.0;"/><line style="stroke:#181818;stroke-width:1.0;" x1="350.2441" x2="350.2441" y1="1189.8086" y2="1209.8086"/><polygon fill="#181818" points="346.2441,1199.8086,350.2441,1209.8086,354.2441,1199.8086,350.2441,1203.8086" style="stroke:#181818;stroke-width:1.0;"/><line style="stroke:#181818;stroke-width:1.0;" x1="350.2441" x2="350.2441" y1="1243.7773" y2="1263.7773"/><polygon fill="#181818" points="346.2441,1253.7773,350.2441,1263.7773,354.2441,1253.7773,350.2441,1257.7773" style="stroke:#181818;stroke-width:1.0;"/><line style="stroke:#181818;stroke-width:1.0;" x1="350.2441" x2="350.2441" y1="1297.7461" y2="1317.7461"/><polygon fill="#181818" points="346.2441,1307.7461,350.2441,1317.7461,354.2441,1307.7461,350.2441,1311.7461" style="stroke:#181818;stroke-width:1.0;"/><line style="stroke:#181818;stroke-width:1.0;" x1="350.2441" x2="350.2441" y1="1351.7148" y2="1371.7148"/><polygon fill="#181818" points="346.2441,1361.7148,350.2441,1371.7148,354.2441,1361.7148,350.2441,1365.7148" style="stroke:#181818;stroke-width:1.0;"/><line style="stroke:#181818;stroke-width:1.0;" x1="350.2441" x2="350.2441" y1="1405.6836" y2="1425.6836"/><polygon fill="#181818" points="346.2441,1415.6836,350.2441,1425.6836,354.2441,1415.6836,350.2441,1419.6836" style="stroke:#181818;stroke-width:1.0;"/><line style="stroke:#181818;stroke-width:1.0;" x1="120.6152" x2="120.6152" y1="536.1523" y2="929.4492"/><polygon fill="#181818" points="116.6152,919.4492,120.6152,929.4492,124.6152,919.4492,120.6152,923.4492" style="stroke:#181818;stroke-width:1.0;"/><line style="stroke:#181818;stroke-width:1.0;" x1="350.2441" x2="350.2441" y1="536.1523" y2="556.1523"/><polygon fill="#181818" points="346.2441,546.1523,350.2441,556.1523,354.2441,546.1523,350.2441,550.1523" style="stroke:#181818;stroke-width:1.0;"/><line style="stroke:#181818;stroke-width:1.0;" x1="120.6152" x2="120.6152" y1="1101.3555" y2="1479.6523"/><polygon fill="#181818" points="116.6152,1469.6523,120.6152,1479.6523,124.6152,1469.6523,120.6152,1473.6523" style="stroke:#181818;stroke-width:1.0;"/><line style="stroke:#181818;stroke-width:1.0;" x1="350.2441" x2="350.2441" y1="1459.6523" y2="1479.6523"/><polygon fill="#181818" points="346.2441,1469.6523,350.2441,1479.6523,354.2441,1469.6523,350.2441,1473.6523" style="stroke:#181818;stroke-width:1.0;"/><line style="stroke:#181818;stroke-width:1.0;" x1="238.6289" x2="238.6289" y1="510.1523" y2="530.1523"/><polygon fill="#181818" points="234.6289,520.1523,238.6289,530.1523,242.6289,520.1523,238.6289,524.1523" style="stroke:#181818;stroke-width:1.0;"/><line style="stroke:#181818;stroke-width:1.0;" x1="238.6289" x2="238.6289" y1="181.9375" y2="206.3398"/><polygon fill="#181818" points="234.6289,196.3398,238.6289,206.3398,242.6289,196.3398,238.6289,200.3398" style="stroke:#181818;stroke-width:1.0;"/><line style="stroke:#181818;stroke-width:1.0;" x1="335.3069" x2="476.2578" y1="169.9375" y2="169.9375"/><polygon fill="#181818" points="472.2578,813.4961,476.2578,823.4961,480.2578,813.4961,476.2578,817.4961" style="stroke:#181818;stroke-width:1.0;"/><line style="stroke:#181818;stroke-width:1.0;" x1="476.2578" x2="476.2578" y1="169.9375" y2="1517.6523"/><line style="stroke:#181818;stroke-width:1.0;" x1="476.2578" x2="250.6289" y1="1517.6523" y2="1517.6523"/><polygon fill="#181818" points="260.6289,1513.6523,250.6289,1517.6523,260.6289,1521.6523,256.6289,1517.6523" style="stroke:#181818;stroke-width:1.0;"/><line style="stroke:#181818;stroke-width:1.0;" x1="238.6289" x2="238.6289" y1="1485.6523" y2="1505.6523"/><polygon fill="#181818" points="234.6289,1495.6523,238.6289,1505.6523,242.6289,1495.6523,238.6289,1499.6523" style="stroke:#181818;stroke-width:1.0;"/><line style="stroke:#181818;stroke-width:1.0;" x1="238.6289" x2="238.6289" y1="137.9375" y2="157.9375"/><polygon fill="#181818" points="234.6289,147.9375,238.6289,157.9375,242.6289,147.9375,238.6289,151.9375" style="stroke:#181818;stroke-width:1.0;"/><line style="stroke:#181818;stroke-width:1.0;" x1="238.6289" x2="238.6289" y1="1529.6523" y2="1549.6523"/><polygon fill="#181818" points="234.6289,1539.6523,238.6289,1549.6523,242.6289,1539.6523,238.6289,1543.6523" style="stroke:#181818;stroke-width:1.0;"/><line style="stroke:#181818;stroke-width:1.0;" x1="238.6289" x2="238.6289" y1="1583.6211" y2="1603.6211"/><polygon fill="#181818" points="234.6289,1593.6211,238.6289,1603.6211,242.6289,1593.6211,238.6289,1597.6211" style="stroke:#181818;stroke-width:1.0;"/><line style="stroke:#181818;stroke-width:1.0;" x1="238.6289" x2="238.6289" y1="1637.5898" y2="1657.5898"/><polygon fill="#181818" points="234.6289,1647.5898,238.6289,1657.5898,242.6289,1647.5898,238.6289,1651.5898" style="stroke:#181818;stroke-width:1.0;"/><line style="stroke:#181818;stroke-width:1.0;" x1="238.6289" x2="238.6289" y1="1691.5586" y2="1711.5586"/><polygon fill="#181818" points="234.6289,1701.5586,238.6289,1711.5586,242.6289,1701.5586,238.6289,1705.5586" style="stroke:#181818;stroke-width:1.0;"/><line style="stroke:#181818;stroke-width:1.0;" x1="238.6289" x2="238.6289" y1="1745.5273" y2="1765.5273"/><polygon fill="#181818" points="234.6289,1755.5273,238.6289,1765.5273,242.6289,1755.5273,238.6289,1759.5273" style="stroke:#181818;stroke-width:1.0;"/><line style="stroke:#181818;stroke-width:1.0;" x1="238.6289" x2="238.6289" y1="1799.4961" y2="1819.4961"/><polygon fill="#181818" points="234.6289,1809.4961,238.6289,1819.4961,242.6289,1809.4961,238.6289,1813.4961" style="stroke:#181818;stroke-width:1.0;"/><!--SRC=[jLF1JeH03Btp5Jt2mH_0Wyd6H6EoNlQWyTQ50brmIcOA6_rwPmPSLs5DFCY5fdtpslVIEaMhIPBlo3YniAUQ3UpHbD28rDT9lWbn9pqPIAcZLYsxeick4wuWtGefz5RAeL0uYYqzQYJROwit6MWJ7ZqIPKb2dID87p1Bm7_vJgNloSB02cdlsMBspdBCJjrEwHT01_BQ8TOhu9ABHfVeCFvPzZbamsYUHLsWTxuKQvNODWOHkCKQt_bW0BrmExHGSCUcz8rEP15tA-A0pIZhbIYXaQ4yLn8wWUTdyuM-nww2NXmh4pXl2qG1tobN7VZ5iij6h4reGSaEFq4R6JsWu_v0iyUZ3CT5by1rGgoM9dA3QA4GCzARs3_BMwE_h6_fwPh0k19dm-tHiPlsuX-C9rF6HVD_hiB1pHV0y-lfq4hnvdIemVdvva9jSIxv4mP3L1J8R-ULcyuN2w-u-YGBodLYI4By0G00]--></g></svg>